<svg width="21" height="21" viewBox="0 0 21 21" fill="none" xmlns="http://www.w3.org/2000/svg">
<g clip-path="url(#clip0_2_30)">
<path d="M10.325 9.5375C8.33875 9.02125 7.7 8.4875 7.7 7.65625C7.7 6.7025 8.58375 6.0375 10.0625 6.0375C11.305 6.0375 11.9263 6.51 12.1538 7.2625C12.2588 7.6125 12.5475 7.875 12.915 7.875H13.1775C13.755 7.875 14.1663 7.30625 13.965 6.76375C13.5975 5.73125 12.74 4.87375 11.375 4.54125V3.9375C11.375 3.21125 10.7887 2.625 10.0625 2.625C9.33625 2.625 8.75 3.21125 8.75 3.9375V4.515C7.0525 4.8825 5.6875 5.985 5.6875 7.67375C5.6875 9.695 7.35875 10.7012 9.8 11.2875C11.9875 11.8125 12.425 12.5825 12.425 13.3963C12.425 14 11.9963 14.9625 10.0625 14.9625C8.61875 14.9625 7.875 14.4463 7.58625 13.7113C7.455 13.37 7.1575 13.125 6.79875 13.125H6.55375C5.9675 13.125 5.55625 13.72 5.775 14.2625C6.27375 15.4787 7.4375 16.1962 8.75 16.4762V17.0625C8.75 17.7887 9.33625 18.375 10.0625 18.375C10.7887 18.375 11.375 17.7887 11.375 17.0625V16.4938C13.0813 16.17 14.4375 15.1813 14.4375 13.3875C14.4375 10.9025 12.3113 10.0537 10.325 9.5375Z" fill="#4D87F9"/>
</g>
<defs>
<clipPath id="clip0_2_30">
<rect width="21" height="21" fill="white"/>
</clipPath>
</defs>
</svg>
